<?xml version="1.0" encoding="utf-8"?>
<!-- Generator: Adobe Illustrator 23.0.2, SVG Export Plug-In . SVG Version: 6.00 Build 0)  -->
<svg version="1.1" id="Layer_1" xmlns="http://www.w3.org/2000/svg" xmlns:xlink="http://www.w3.org/1999/xlink" x="0px" y="0px"
	 viewBox="0 0 24 24" style="enable-background:new 0 0 24 24;" xml:space="preserve">
<style type="text/css">
	.st0{fill:#4F4F4F;}
	.st1{fill:#9DD3FF;}
	.st2{fill:#558BFF;}
</style>
<path class="st0" d="M12,22C6.5,22,2,17.5,2,12C2,6.5,6.5,2,12,2c5.5,0,10,4.5,10,10C22,17.5,17.5,22,12,22z M12,4c-4.4,0-8,3.6-8,8
	s3.6,8,8,8s8-3.6,8-8S16.4,4,12,4z"/>
<!-- <path class="st1" d="M19,12C19,12,19,12,19,12c0-1.1-0.2-2.1-0.7-3.1c-0.5-1-1.2-1.8-2-2.5c-0.9-0.7-1.8-1.1-2.9-1.3
	S11.2,5,10.2,5.2c-1,0.3-2,0.8-2.8,1.5S5.9,8.3,5.5,9.3c-0.4,1-0.6,2.1-0.5,3.1c0.1,1.1,0.4,2.1,0.9,3c0,0,0,0,0,0L12,12
	c0,0,0,0,0,0L19,12z"/> -->
<path class="st2" d="M11,16c0,0.5,0.4,1,1,1l0,0c0.5,0,1-0.4,1-1v-5.1c0-0.5-0.4-1-1-1l0,0c-0.5,0-1,0.4-1,1V16z M12,9
	c0.6,0,1.1-0.4,1.1-1c0-0.5-0.5-1-1.1-1c-0.6,0-1.1,0.4-1.1,1C10.9,8.5,11.4,9,12,9z"/>
</svg>
