<svg xmlns="http://www.w3.org/2000/svg" viewBox="0 0 40 46"><defs><style>.cls-1{fill:#558bff;}.cls-2{fill:#4f4f4f;}</style></defs><title>AbstractIcon</title><g id="Layer_2" data-name="Layer 2"><g id="Layer_1-2" data-name="Layer 1"><path class="cls-1" d="M31.42,14.69,20,22.5,8.58,14.69,20,6.89Z"/><path class="cls-2" d="M39.36,13.47,21,.32a1.68,1.68,0,0,0-2,0L.64,13.47A1.6,1.6,0,0,0,0,14.69v.76L18.36,28.61V41.37L3.27,30.56v-8.9L0,19.32v12a1.51,1.51,0,0,0,.64,1.21L19,45.69a1.75,1.75,0,0,0,2,0L39.36,32.53A1.51,1.51,0,0,0,40,31.32V14.69A1.6,1.6,0,0,0,39.36,13.47ZM20,25.93C17.94,24.45,5.08,15.24,4.33,14.69L20,3.47,35.67,14.69C34.94,15.21,22,24.45,20,25.93Zm16.73,4.63L21.64,41.37V28.61L36.73,17.8Z"/></g></g></svg>