<svg xmlns="http://www.w3.org/2000/svg" viewBox="0 0 31.41 44"><defs><style>.cls-1{fill:#4f4f4f;}.cls-2{fill:#558bff;}</style></defs><title>AccessibilityIcon</title><g id="Layer_2" data-name="Layer 2"><g id="Layer_1-2" data-name="Layer 1"><path class="cls-1" d="M4.68,11.67a1.29,1.29,0,0,0,1.05-1.49,6.49,6.49,0,1,1,12.79,0,1.29,1.29,0,1,0,2.54.44,9.07,9.07,0,1,0-17.87,0A1.29,1.29,0,0,0,4.68,11.67Z"/><polygon class="cls-2" points="1.48 32.06 2.71 28 9.71 31 30.71 31 30.71 40 24.13 43.41 13.67 43.08 1.48 32.06"/><path class="cls-1" d="M25,41.42H14.47a3.87,3.87,0,0,1-2.82-1.22L2.94,30.9A1.27,1.27,0,0,1,3,29.06a1.32,1.32,0,0,1,1.83.1l3.73,3.91a1.29,1.29,0,0,0,2.22-.89V9.11a1.3,1.3,0,0,1,1.34-1.29,1.33,1.33,0,0,1,1.26,1.34c0,14.19,0,7.76,0,15.42a1.3,1.3,0,0,0,2.6,0V20.47a1.29,1.29,0,0,1,2.55.24v3.87a1.29,1.29,0,0,0,2.58,0V22.43a1.29,1.29,0,0,1,2.58,0v2.15a1.29,1.29,0,0,0,2.58,0v-.43a1.29,1.29,0,0,1,2.58,0V34h2.57V24.15a3.87,3.87,0,0,0-5.57-3.47A3.87,3.87,0,0,0,20.68,19,3.86,3.86,0,0,0,16,17.06V9.16A3.93,3.93,0,0,0,12.2,5.24a3.87,3.87,0,0,0-4,3.87V29L6.7,27.38a3.92,3.92,0,0,0-5.42-.24,3.86,3.86,0,0,0-.21,5.54L9.77,42a6.45,6.45,0,0,0,4.7,2H25a6.45,6.45,0,0,0,6.42-6h-2.6A3.85,3.85,0,0,1,25,41.42Z"/></g></g></svg>