<svg xmlns="http://www.w3.org/2000/svg" viewBox="0 0 46.5 30.5"><defs><style>.cls-1{fill:#558bff;}.cls-2{fill:#4f4f4f;stroke:#4f4f4f;stroke-miterlimit:10;stroke-width:0.5px;}</style></defs><title>ActiveIcon</title><g id="Layer_2" data-name="Layer 2"><g id="Layer_1-2" data-name="Layer 1"><path class="cls-1" d="M23.31,6.06l-2,0A8.18,8.18,0,0,0,19.8,5.9a7.84,7.84,0,0,0-5,1.81h0a9.26,9.26,0,0,0-5.64,2.43,9.11,9.11,0,0,0-2.83,5.4h0A5.42,5.42,0,0,0,5.09,19a5.5,5.5,0,0,0,5.27,5.46h0a9.24,9.24,0,0,0,11.05-.69l2,0Z"/><path class="cls-1" d="M21.31,6.05c0,6.22,0,11.81.12,17.69C21.43,23.49,21.31,16.15,21.31,6.05Z"/><path class="cls-2" d="M41,11.54a10.3,10.3,0,0,0-3.22-6.19,10.45,10.45,0,0,0-7.15-2.81,9.89,9.89,0,0,0-1.29.09A11.77,11.77,0,0,0,14.76,3,13.83,13.83,0,0,0,6.32,6.61,13.6,13.6,0,0,0,2.08,14.7,8.13,8.13,0,0,0,.25,19.83,8.22,8.22,0,0,0,8.15,28a13.84,13.84,0,0,0,16.78-1.24h3.32v-2H26.32A4.89,4.89,0,0,0,26.65,23a4.77,4.77,0,0,0-1.43-3.41,1,1,0,0,0-1.35,0,.93.93,0,0,0,0,1.34,2.92,2.92,0,0,1,.18,3.94,1.37,1.37,0,0,0-.21.15A11.83,11.83,0,0,1,9,26.18L9,26.13a3.79,3.79,0,0,1,.18-5.19.93.93,0,0,0,0-1.34,1,1,0,0,0-1.35,0,5.67,5.67,0,0,0-1.31,6.06A6.15,6.15,0,0,1,3.8,15.77a1,1,0,0,0,.25-.54A11.56,11.56,0,0,1,7.7,8.07,11.79,11.79,0,0,1,13.22,5.2a5.58,5.58,0,0,0-.37,2,5.47,5.47,0,0,0,1.63,3.91,1,1,0,0,0,.68.28,1,1,0,0,0,.68-1.62,3.58,3.58,0,0,1-1.08-2.57,3.64,3.64,0,0,1,.89-2.38.71.71,0,0,0,.18-.12,9.75,9.75,0,0,1,11.3-1.15,4.26,4.26,0,0,0-1.77,4,1,1,0,0,0,.95.83h.12a.94.94,0,0,0,.83-1.06,2.36,2.36,0,0,1,2.06-2.64l.15,0a7.46,7.46,0,0,1,1.2-.1,8.44,8.44,0,0,1,8.24,6.57,4.88,4.88,0,0,0-4.57,3.09,1,1,0,0,0,.56,1.23,1,1,0,0,0,.34.06,1,1,0,0,0,.89-.6,3,3,0,0,1,3.4-1.81,1,1,0,0,0,.25.12,6.45,6.45,0,0,1-2.07,12.59,6.56,6.56,0,0,1-3.31-.9,1,1,0,0,0-.51-.14H32.25v2h1.37a8.63,8.63,0,0,0,4.09,1A8.45,8.45,0,0,0,41,11.54Z"/><path class="cls-2" d="M39.68,18.05a3.53,3.53,0,0,0-3.53,3.51,1,1,0,0,0,1.91,0A1.62,1.62,0,0,1,39.68,20a1,1,0,1,0,0-1.9Z"/><path class="cls-2" d="M17.64,16.92a4.18,4.18,0,0,0-4.2,4.16,1,1,0,0,0,1.91,0,2.29,2.29,0,0,1,2.29-2.27.95.95,0,1,0,0-1.89Z"/><path class="cls-2" d="M29.08,13.87a5,5,0,0,0-6.62-2.5.95.95,0,1,0,.78,1.73,3.12,3.12,0,0,1,4.1,1.55,1,1,0,0,0,.87.56.89.89,0,0,0,.39-.09A.93.93,0,0,0,29.08,13.87Z"/></g></g></svg>