<svg xmlns="http://www.w3.org/2000/svg" viewBox="0 0 43.83 28"><defs><style>.cls-1{fill:#4f4f4f;}.cls-2{fill:#558bff;}</style></defs><title>ARIcon</title><g id="Layer_2" data-name="Layer 2"><g id="Layer_1-2" data-name="Layer 1"><path class="cls-1" d="M30.41,9.25a5.37,5.37,0,0,0-5.48,5.25,5.49,5.49,0,0,0,11,0A5.37,5.37,0,0,0,30.41,9.25Zm0,7a1.75,1.75,0,1,1,1.83-1.75A1.79,1.79,0,0,1,30.41,16.25Z"/><path class="cls-1" d="M39.54,2.93,29.48.79a36.77,36.77,0,0,0-15.14,0L4.28,2.93A5.28,5.28,0,0,0,0,8.06v12.5a5.28,5.28,0,0,0,4.29,5.13l10.07,2.14L15,28a1.61,1.61,0,0,0,.37,0,1.87,1.87,0,0,0,1.22-.44l3.94-3.35.08-.07a1.88,1.88,0,0,1,2.59,0l.08.07,3.94,3.35a1.84,1.84,0,0,0,1.58.4L37.91,26V22.45L29,24.35l-3.21-2.73a5.67,5.67,0,0,0-7.67,0l-3.21,2.73L5.08,22.28a1.78,1.78,0,0,1-1.43-1.72V8.06A1.77,1.77,0,0,1,5.08,6.34L15.13,4.21a32.61,32.61,0,0,1,13.56,0L38.74,6.34a1.77,1.77,0,0,1,1.43,1.72v12.5a1.69,1.69,0,0,1-.2.76c1.2.32,2.39.54,3.59.84a5.26,5.26,0,0,0,.27-1.6V8.06A5.29,5.29,0,0,0,39.54,2.93Z"/><circle class="cls-2" cx="30.41" cy="14.5" r="2.5"/><path class="cls-1" d="M13.41,9.25A5.37,5.37,0,0,0,7.93,14.5a5.38,5.38,0,0,0,5.48,5.25,5.38,5.38,0,0,0,5.48-5.25A5.37,5.37,0,0,0,13.41,9.25Zm0,7a1.75,1.75,0,1,1,1.83-1.75A1.79,1.79,0,0,1,13.41,16.25Z"/><circle class="cls-2" cx="13.41" cy="14.5" r="2.5"/></g></g></svg>