<?xml version="1.0" encoding="UTF-8"?>
<svg xmlns="http://www.w3.org/2000/svg" viewBox="0 0 42 42"><defs><style>.cls-1{fill:#558bff;}.cls-2{fill:#4f4f4f;}</style></defs><title>BrandIcon</title><g id="Layer_2" data-name="Layer 2"><g id="Layer_1-2" data-name="Layer 1"><path class="cls-1" d="M29.46,12.86a2.67,2.67,0,0,1,3.77-3.77l4.93-4.92L35.48,1.5,28.06,2.59A8.26,8.26,0,0,0,23.45,4.9l-21,20.78,7.12,7.11Z"/><path class="cls-2" d="M40.81,14.42,42,6.33,35.67,0,27.58,1.19a9.61,9.61,0,0,0-5.36,2.69L0,26.1,1.89,28,24.11,5.77A6.9,6.9,0,0,1,28,3.83l6.77-1,4.43,4.43-1,6.77a6.9,6.9,0,0,1-1.94,3.85L15.9,38.23,5.66,28,3.77,29.88,15.9,42,38.12,19.78A9.61,9.61,0,0,0,40.81,14.42Z"/><path class="cls-2" d="M33.92,13.75a4,4,0,1,0-5.67,0h0a4,4,0,0,0,5.67,0ZM30.15,10a1.33,1.33,0,1,1,0,1.89h0A1.34,1.34,0,0,1,30.15,10Z"/></g></g></svg>