<svg xmlns="http://www.w3.org/2000/svg" viewBox="0 0 42 48"><defs><style>.cls-1{fill:#558bff;}.cls-2{fill:#4f4f4f;}</style></defs><title>ConclusionIcon</title><g id="Layer_2" data-name="Layer 2"><g id="Layer_1-2" data-name="Layer 1"><polygon class="cls-1" points="2.1 26.97 2.1 13.31 21 13.31 25.2 20.67 39.9 20.67 39.9 32.23 25.2 32.23 18.9 26.97 2.1 26.97"/><path class="cls-2" d="M39.2,5.6h-14l-2-4.06A2.8,2.8,0,0,0,20.66,0H2.8A2.81,2.81,0,0,0,0,2.8V48H3.5V28h0v-3.5h0V3.5H19.6l2.8,5.61H38.5v21H25.2l-2.8-5.6H9V28H19.6l2,4.07a2.75,2.75,0,0,0,1,1.12,2.82,2.82,0,0,0,1.47.42H39.2A2.81,2.81,0,0,0,42,30.82V8.41A2.82,2.82,0,0,0,39.2,5.6Z"/></g></g></svg>