<?xml version="1.0" encoding="utf-8"?>
<!DOCTYPE svg PUBLIC "-//W3C//DTD SVG 1.1//EN" 
  "http://www.w3.org/Graphics/SVG/1.1/DTD/svg11.dtd">
<!-- Generator: Adobe Illustrator 23.0.2, SVG Export Plug-In . SVG Version: 6.00 Build 0)  -->
<svg version="1.1" id="Layer_1" xmlns="http://www.w3.org/2000/svg" xmlns:xlink="http://www.w3.org/1999/xlink" x="0px" y="0px"
	 viewBox="0 0 24 24" style="enable-background:new 0 0 24 24;" xml:space="preserve">
<style type="text/css">
	.st0{fill:#4F4F4F;}
	.st1{fill:#9DD3FF;}
	.st2{fill:#558BFF;}
</style>
<path class="st0" d="M16.5,3.7c-0.8-0.7-1.7-1.2-2.8-1.4c-1-0.3-2.1-0.3-3.1-0.1C9.2,2.4,8,3.1,7,4.2c-1,1-1.6,2.3-1.9,3.7
	C4.9,9,5,10,5.2,11.1c0.3,1,0.7,2,1.4,2.8c0.6,0.7,1,1.6,1,2.6v2.7c0,0.7,0.3,1.4,0.8,1.9c0.5,0.5,1.2,0.8,1.9,0.8h3.5
	c0.7,0,1.4-0.3,1.9-0.8c0.5-0.5,0.8-1.2,0.8-1.9v-2.6c0-1.1,0.4-2.1,1.1-2.9c1.2-1.5,1.7-3.4,1.5-5.3C18.8,6.6,17.9,4.9,16.5,3.7
	L16.5,3.7z M14.6,19.3c0,0.2-0.1,0.5-0.3,0.6c-0.2,0.2-0.4,0.3-0.6,0.3h-3.5c-0.2,0-0.5-0.1-0.6-0.3c-0.2-0.2-0.3-0.4-0.3-0.6v-0.9
	h5.3V19.3z M16.1,12.7c-0.9,1.1-1.4,2.4-1.5,3.9h-1.8v-2.7c0-0.2-0.1-0.5-0.3-0.6c-0.2-0.2-0.4-0.3-0.6-0.3c-0.2,0-0.5,0.1-0.6,0.3
	c-0.2,0.2-0.3,0.4-0.3,0.6v2.7H9.4c0-1.4-0.5-2.7-1.4-3.8c-0.6-0.7-1-1.6-1.1-2.5C6.7,9.3,6.7,8.4,7,7.5c0.3-0.9,0.8-1.7,1.5-2.3
	c0.7-0.6,1.5-1,2.4-1.2c0.8-0.2,1.6-0.1,2.3,0C14,4.2,14.7,4.5,15.3,5c0.6,0.5,1.1,1.2,1.4,1.9s0.5,1.5,0.5,2.3
	C17.3,10.5,16.8,11.7,16.1,12.7z"/>
<path class="st1" d="M16.3,9.2c0,2.3-1.9,4.2-4.2,4.2s-4.2-1.9-4.2-4.2S9.7,4.9,12,4.9S16.3,6.8,16.3,9.2z"/>
<path class="st2" d="M13,13v3.5h-2V13c0-0.3,0.2-1,1-1S13,12.7,13,13z"/>
</svg>
