<?xml version="1.0" encoding="UTF-8"?>
<svg xmlns="http://www.w3.org/2000/svg" viewBox="0 0 35.5 48.5"><defs><style>.cls-1{fill:#69f;}.cls-2{fill:#4f4f4f;stroke:#4f4f4f;stroke-linecap:round;stroke-linejoin:round;stroke-width:0.5px;}</style></defs><title>DefineIcon</title><g id="Layer_2" data-name="Layer 2"><g id="Layer_1-2" data-name="Layer 1"><path class="cls-1" d="M6.4,17.53A11.81,11.81,0,0,0,9,25c2.09,2.6,4.6,7.53,4.59,10.86h8.28c0-3.33,2.5-8.26,4.59-10.86a11.81,11.81,0,0,0,2.62-7.47A11.52,11.52,0,0,0,17.75,5.85,11.52,11.52,0,0,0,6.4,17.53Z"/><path class="cls-2" d="M17.75.25A17.52,17.52,0,0,0,4.22,28.88,17.86,17.86,0,0,1,8.44,40.17v1.89H24v3.09H8.44v3.1H27.06V39H11.57A21.2,21.2,0,0,0,6.75,27a14.55,14.55,0,0,1-3.32-9.23,14.32,14.32,0,1,1,28.64,0A14.55,14.55,0,0,1,28.75,27a21,21,0,0,0-4.35,8.86h3.26a18.27,18.27,0,0,1,3.56-6.92A17.51,17.51,0,0,0,17.75.25Z"/></g></g></svg>