<?xml version="1.0" encoding="UTF-8"?>
<svg xmlns="http://www.w3.org/2000/svg" viewBox="0 0 42 31.78"><defs><style>.cls-1{fill:#558bff;}.cls-2{fill:#4f4f4f;}</style></defs><title>DevelopmentIcon</title><g id="Layer_2" data-name="Layer 2"><g id="Layer_1-2" data-name="Layer 1"><path class="cls-1" d="M1.4,1.4H40.6V8.22H1.4Z"/><path class="cls-2" d="M15.73,25.59,11.2,20.2a1.39,1.39,0,0,1,0-1.8L15.73,13l2.14,1.8L14.1,19.3l3.77,4.49Z"/><path class="cls-2" d="M26.27,25.59l-2.14-1.8L27.9,19.3l-3.77-4.49L26.27,13,30.8,18.4a1.39,1.39,0,0,1,0,1.8Z"/><path class="cls-2" d="M18.46,24.71l2.33-11.38,2.75.56L21.21,25.27Z"/><path class="cls-2" d="M39.2,6.82v-4H2.8V4H0V1.4A1.4,1.4,0,0,1,1.4,0H40.6A1.4,1.4,0,0,1,42,1.4V9.62H2.8V29H39.2V12.42H42v18a1.4,1.4,0,0,1-1.4,1.4H1.4A1.4,1.4,0,0,1,0,30.38V6.82Z"/></g></g></svg>