<svg xmlns="http://www.w3.org/2000/svg" viewBox="0 0 45 45"><defs><style>.cls-1{fill:#4f4f4f;}.cls-2{fill:#558bff;}</style></defs><title>EarthIcon</title><g id="Layer_2" data-name="Layer 2"><g id="Layer_1-2" data-name="Layer 1"><path class="cls-1" d="M22.5,0a22.5,22.5,0,0,0,0,45V40.55a16.16,16.16,0,0,1-2.25-.21A17.92,17.92,0,0,1,5,18.47l6.22,8.91L13.5,22.5V18H18a2.25,2.25,0,0,0,2.25-2.25v-4.5h4.5a4.51,4.51,0,0,0,4.5-4.5V5.82A18,18,0,0,1,40.5,22.5c0,4.68-4.73,12.13-4.73,12.13A26.32,26.32,0,0,1,29.51,39c.85,1.31,1.68,2.61,2.39,3.92A22.5,22.5,0,0,0,22.5,0Z"/><path class="cls-2" d="M17.07,34.68a4.52,4.52,0,0,1-1-1.46,4.59,4.59,0,0,1-.34-1.72V29.25L5,18.47A17.92,17.92,0,0,0,20.25,40.34V36a4.59,4.59,0,0,1-1.72-.34A4.52,4.52,0,0,1,17.07,34.68Z"/><path class="cls-2" d="M31.5,14.5c-4,0-4,5-4,5l.18,3.12a2.17,2.17,0,0,1,.91.54,2.25,2.25,0,0,1,.66,1.59V31.5H31.5a4.51,4.51,0,0,1,4.27,3.13,17.93,17.93,0,0,0,3-19.9C36.5,14.73,34.5,14.5,31.5,14.5Z"/></g></g></svg>