<svg xmlns="http://www.w3.org/2000/svg" viewBox="0 0 40 40"><defs><style>.cls-1{fill:#558bff;}.cls-2{fill:#4f4f4f;}</style></defs><title>EngagementIcon</title><g id="Layer_2" data-name="Layer 2"><g id="Layer_1-2" data-name="Layer 1"><polyline class="cls-1" points="20 28 20 3 11 3 12 25"/><path class="cls-2" d="M30,4V0H20V4h6V20c0,3.31-2,6-6,6s-6-2.69-6-6V0H10V4H0V18a4.3,4.3,0,0,0,4,4h6.4c.8,3.8,2.8,7.2,7.6,7.8V34c-6,.4-6,2.6-6,5.2V40H28v-.6c0-2.6,0-4.8-6-5.2V30c5-.6,7-4,7.6-7.8H36a4.3,4.3,0,0,0,4-4V4ZM10,18H4V8h6Zm26,0H30V8h6Z"/></g></g></svg>