<svg xmlns="http://www.w3.org/2000/svg" viewBox="0 0 42 42"><defs><style>.cls-1{fill:#558bff;}.cls-2{fill:#4f4f4f;}</style></defs><title>FeedbackIcon</title><g id="Layer_2" data-name="Layer 2"><g id="Layer_1-2" data-name="Layer 1"><path class="cls-1" d="M1.35,8.83H30.48l-.17,9.75h-29Z"/><path class="cls-2" d="M40.65,7.44H31a5.22,5.22,0,0,0-.18-5A4.94,4.94,0,0,0,26.58,0C24.71,0,22.67,2.81,21,5.85,19.33,2.81,17.29,0,15.42,0a4.94,4.94,0,0,0-4.25,2.44,5.22,5.22,0,0,0-.18,5H1.35A1.37,1.37,0,0,0,0,8.83v1.39H19.64v7H2.71V13H0v5.58A1.37,1.37,0,0,0,1.35,20H4.48V40.61A1.37,1.37,0,0,0,5.83,42H32.1V39.22H22.35V20H34.81V42h1.36a1.37,1.37,0,0,0,1.35-1.39V20h3.13A1.37,1.37,0,0,0,42,18.58V8.83A1.37,1.37,0,0,0,40.65,7.44Zm-25.23,0a2.3,2.3,0,0,1-2.27-2.29,2.3,2.3,0,0,1,2.2-2.37c.65.28,2.07,2.25,3.4,4.66Zm4.22,31.78H7.19V20H19.64Zm7-36.44a2.3,2.3,0,0,1,2.2,2.37,2.3,2.3,0,0,1-2.27,2.29H23.25C24.58,5,26,3.06,26.65,2.78ZM39.29,17.19H22.35v-7H39.29Z"/></g></g></svg>