<svg xmlns="http://www.w3.org/2000/svg" viewBox="0 0 42 42"><defs><style>.cls-1{fill:#558bff;}.cls-2{fill:#4f4f4f;}</style></defs><title>GadgetIcon</title><g id="Layer_2" data-name="Layer 2"><g id="Layer_1-2" data-name="Layer 1"><rect class="cls-1" x="24.34" y="30.24" width="4.58" height="4.58"/><rect class="cls-1" x="13.24" y="30.31" width="4.58" height="4.58"/><rect class="cls-1" x="18.72" y="1.65" width="4.58" height="4.58"/><rect class="cls-1" x="1.38" y="18.3" width="4.58" height="8.95"/><path class="cls-2" d="M11.5,30.23v4.62a1.75,1.75,0,0,0,1.75,1.75h15.5a1.75,1.75,0,0,0,1.75-1.75V30.23a1.75,1.75,0,0,0-1.75-1.75H13.25A1.75,1.75,0,0,0,11.5,30.23ZM17,34.14H14v-3.2h3Zm5.6,0H19.43v-3.2h3.14Zm5.47,0H25v-3.2h3Z"/><path class="cls-2" d="M15.65,16.63A4.32,4.32,0,1,0,20,21,4.33,4.33,0,0,0,15.65,16.63Zm0,6.18A1.86,1.86,0,1,1,17.51,21,1.86,1.86,0,0,1,15.65,22.81Z"/><path class="cls-2" d="M26.35,16.63A4.32,4.32,0,1,0,30.67,21,4.32,4.32,0,0,0,26.35,16.63Zm0,6.18A1.86,1.86,0,1,1,28.21,21,1.86,1.86,0,0,1,26.35,22.81Z"/><path class="cls-2" d="M36.49,17.23V13.34a1.76,1.76,0,0,0-1.75-1.75H22.23V7.73a4,4,0,1,0-2.46,0v3.86H7.26a1.76,1.76,0,0,0-1.75,1.75v3.89H0V20H2.46v-.31H5.51v6.7h-3V23H0v5.85H5.51v11.4A1.75,1.75,0,0,0,7.26,42H34.74a1.75,1.75,0,0,0,1.75-1.75V39H34v.54H8V14.06H34V35h2.46V28.85H42V17.23ZM21,5.47A1.51,1.51,0,1,1,22.5,4,1.51,1.51,0,0,1,21,5.47ZM39.54,26.39h-3v-6.7h3Z"/></g></g></svg>