<?xml version="1.0" encoding="UTF-8"?>
<svg xmlns="http://www.w3.org/2000/svg" viewBox="0 0 48 48"><defs><style>.cls-1{fill:#558bff;}.cls-2{fill:#4f4f4f;}</style></defs><title>GoalIcon</title><g id="Layer_2" data-name="Layer 2"><g id="Layer_1-2" data-name="Layer 1"><path class="cls-1" d="M33.34,24A9.34,9.34,0,1,1,24,14.66,9.34,9.34,0,0,1,33.34,24Z"/><path class="cls-2" d="M24,16.56A7.44,7.44,0,1,0,31.44,24,7.44,7.44,0,0,0,24,16.56Zm3.93,5.84H25.6V20.07A4.32,4.32,0,0,1,27.93,22.4ZM22.4,20.07V22.4H20.07A4.29,4.29,0,0,1,22.4,20.07ZM20.07,25.6H22.4v2.33A4.32,4.32,0,0,1,20.07,25.6Zm5.53,2.33V25.6h2.33A4.36,4.36,0,0,1,25.6,27.93Z"/><path class="cls-2" d="M45,22.4A21.1,21.1,0,0,0,25.6,3V0H22.4V9.3h3.2V6.2A17.89,17.89,0,0,1,41.8,22.4H38.7v3.2H48V22.4ZM25.6,41.8V38.7H22.4v3.1A17.89,17.89,0,0,1,6.2,25.6H9.3V22.4H6.2a17.9,17.9,0,0,1,13-15.62V3.48A21.1,21.1,0,0,0,3,22.4H0v3.2H3A21.1,21.1,0,0,0,22.4,45v3h3.2V45A21.1,21.1,0,0,0,44.52,28.8h-3.3A17.9,17.9,0,0,1,25.6,41.8Z"/></g></g></svg>