<svg xmlns="http://www.w3.org/2000/svg" viewBox="0 0 48 40"><defs><style>.cls-1{fill:#558bff;}.cls-2{fill:#4f4f4f;}</style></defs><title>GroupIcon</title><g id="Layer_2" data-name="Layer 2"><g id="Layer_1-2" data-name="Layer 1"><g id="grup_social_media_interaction_communication_web" data-name="grup social media interaction communication web"><path class="cls-1" d="M22.69,26.41a9,9,0,0,0,3.58-12,8.46,8.46,0,0,0-11.61-3.7,9.08,9.08,0,0,0-.13,15.7C8.14,27.54,29.05,27.54,22.69,26.41Z"/><path class="cls-2" d="M40,18.82a20.52,20.52,0,0,0-3.07-1.28,10.78,10.78,0,0,0-.81-14.86A10,10,0,0,0,29.39,0a10.17,10.17,0,0,0-9.8,8.13c-.32,0-.65-.05-1-.05A10.37,10.37,0,0,0,8.53,18.72a10.74,10.74,0,0,0,2.6,6.91C5.32,27.56,0,32,0,38.4A1.58,1.58,0,0,0,1.55,40H35.67a1.58,1.58,0,0,0,1.55-1.6c0-6.43-5.32-10.84-11.13-12.77a10.8,10.8,0,0,0-.8-14.9,10.23,10.23,0,0,0-2.7-1.79,7,7,0,0,1,8.24-5.58,7.14,7.14,0,0,1,5.54,7.14,7.36,7.36,0,0,1-3.65,6.43,1.63,1.63,0,0,0-.61,2.17,1.55,1.55,0,0,0,1.09.81,19.14,19.14,0,0,1,5.37,1.77c3.33,1.72,5.53,4.27,6.15,7H36.61a16.15,16.15,0,0,1,2.15,3.2h7.69A1.58,1.58,0,0,0,48,30.32c0-4.6-3-8.9-8-11.5Zm-14.36-.24A7.36,7.36,0,0,1,21.94,25a1.63,1.63,0,0,0-.61,2.17,1.55,1.55,0,0,0,1.1.81c7,1.24,10.67,5.16,11.51,8.81H3.28C4.12,33.15,7.8,29.23,14.8,28a1.62,1.62,0,0,0,.48-3,7.4,7.4,0,0,1-3-9.83,6.94,6.94,0,0,1,9.51-3.07A7.31,7.31,0,0,1,25.59,18.58Z"/></g></g></g></svg>