<svg xmlns="http://www.w3.org/2000/svg" viewBox="0 0 36 36"><defs><style>.cls-1{fill:#558bff;}.cls-2{fill:#4f4f4f;}</style></defs><title>IdeateIcon</title><g id="Layer_2" data-name="Layer 2"><g id="Layer_1-2" data-name="Layer 1"><path class="cls-1" d="M5.35,28.22,25.82,7.75l5.43,5.43L10.78,33.65Z"/><path class="cls-2" d="M34.46,11.55a7,7,0,0,0-.6-9.41A7,7,0,0,0,24,1.94L4,22l1.62,1.62L22.82,6.37l6.81,6.81L10.78,32,2.35,23.61l-.81.81a1.13,1.13,0,0,0-.33.67L0,34.72A1.13,1.13,0,0,0,1.28,36l9.63-1.2a1.22,1.22,0,0,0,.67-.33L32.86,13.18,24.43,4.75l1.2-1.2a4.72,4.72,0,0,1,6.62.2,4.75,4.75,0,0,1,.58,6.17Zm-32,22,.73-5.85,5.12,5.12Z"/></g></g></svg>