<svg xmlns="http://www.w3.org/2000/svg" viewBox="0 0 30 48"><defs><style>.cls-1{fill:#558bff;}.cls-2{fill:#4f4f4f;}</style></defs><title>Iteration1Icon</title><g id="Layer_2" data-name="Layer 2"><g id="Layer_1-2" data-name="Layer 1"><path class="cls-1" d="M29.38,33.76A13.26,13.26,0,0,1,16,46.9,13.25,13.25,0,0,1,2.65,33.76Z"/><path class="cls-2" d="M29.91,34.86a14.44,14.44,0,0,0,.09-1.6,14.69,14.69,0,0,0-9.4-13.7V3.2h.84a1.62,1.62,0,0,0,1.63-1.6A1.62,1.62,0,0,0,21.44,0H8.57A1.61,1.61,0,0,0,7,1.6,1.61,1.61,0,0,0,8.57,3.2h8.77V20.69a1.61,1.61,0,0,0,1.15,1.53,11.53,11.53,0,0,1,8.14,9.44H3.38a11.53,11.53,0,0,1,8.15-9.44,1.61,1.61,0,0,0,1.14-1.53V6.4H9.42V19.56A14.69,14.69,0,0,0,.16,35.36,14.88,14.88,0,0,0,13.59,47.93a15,15,0,0,0,15.59-9.87H25.67a11.77,11.77,0,0,1-12.36,6.62,11.64,11.64,0,0,1-9.93-9.82Z"/><path class="cls-2" d="M17.5,28A1.49,1.49,0,1,1,16,26.55,1.47,1.47,0,0,1,17.5,28Z"/><path class="cls-2" d="M14.19,40a1.49,1.49,0,1,1-1.49-1.46A1.47,1.47,0,0,1,14.19,40Z"/><path class="cls-2" d="M21.79,40a2.48,2.48,0,1,1-2.47-2.43A2.45,2.45,0,0,1,21.79,40Z"/></g></g></svg>