<svg xmlns="http://www.w3.org/2000/svg" viewBox="0 0 40 40"><defs><style>.cls-1{fill:#558bff;}.cls-2{fill:#4f4f4f;}</style></defs><title>LimitlessIcon</title><g id="Layer_2" data-name="Layer 2"><g id="Layer_1-2" data-name="Layer 1"><path class="cls-1" d="M29.06,3.15a9.26,9.26,0,0,0,2.68,5.09,9.26,9.26,0,0,0,5.09,2.68c-3.64,7.73-11.28,13.94-18.77,18l-7-7C16.31,12.25,22.93,6,29.06,3.15Z"/><path class="cls-2" d="M26.59,11.31a2.09,2.09,0,1,1-1.47.61,2.08,2.08,0,0,1,1.47-.61Z"/><path class="cls-2" d="M.49,17.2l5.83-4.54a2.53,2.53,0,0,1,2.4-.38l3.11,1.13c-.51.71-1,1.44-1.49,2.18L7.9,14.7,4.69,17.2l1.37-.09a2.48,2.48,0,0,1,1.57.53l3,2.35c4.88-8.5,11.17-14.87,17.85-18A18.23,18.23,0,0,1,38,0a2.2,2.2,0,0,1,2,2A16.07,16.07,0,0,1,39.32,8a4.71,4.71,0,0,0-2.41-1,13.36,13.36,0,0,0,.49-4.4A15.33,15.33,0,0,0,30.56,3.9a8.17,8.17,0,0,0,2.09,3.43A7.91,7.91,0,0,0,37,9.64a1.29,1.29,0,0,1,1.08,1.47,1.15,1.15,0,0,1-.11.36c-2.38,5.06-6.64,9.94-12.34,14.16l2,5.63a2.49,2.49,0,0,1-.38,2.41l-4.54,5.82C21.73,40.85,20,39.17,20,38.16l.27-4.26-3.19-4.12-2.53-2.53-2.13,2.12-1.82-1.82,2.13-2.13-2.53-2.53L6.08,19.7,1.83,20C.7,20.05-.78,18.19.49,17.2ZM22.36,32.37a2.52,2.52,0,0,1,.51,1.56l-.09,1.39,2.5-3.17-1.81-5c-1.11.74-2.27,1.46-3.47,2.15Zm-7.8-8.77,4-4,1.82,1.82-4,4,1.9,1.9c6.52-3.67,13.05-9,16.66-15.55a10.86,10.86,0,0,1-4.12-2.62A10.87,10.87,0,0,1,28.21,5C22.42,8.22,17,14.06,12.66,21.7Z"/></g></g></svg>