<?xml version="1.0" encoding="UTF-8"?>
<svg xmlns="http://www.w3.org/2000/svg" viewBox="0 0 32 44"><defs><style>.cls-1{fill:#558bff;}.cls-2{fill:#4f4f4f;}</style></defs><title>OrganizeIcon</title><g id="Layer_2" data-name="Layer 2"><g id="Layer_1-2" data-name="Layer 1"><g id="order_list_business_e-commerce_economy_company" data-name="order list business e-commerce economy company"><path class="cls-1" d="M22.63,1.42H1.42v15l29.16-.18V9.39ZM12.76,32.14H7.09V26.46h5.67Zm0-11.36H7.09V15.11h5.67Z"/><path class="cls-2" d="M17,16.28h7.85a1.42,1.42,0,0,1,1.42,1.41h0a1.42,1.42,0,0,1-1.42,1.42H17Z"/><path class="cls-2" d="M17,27.88h7.85a1.43,1.43,0,0,1,1.42,1.42h0a1.43,1.43,0,0,1-1.42,1.42H17Z"/><path class="cls-2" d="M32,16.28v-7a1.15,1.15,0,0,0-.34-.82L23.56.34A1.17,1.17,0,0,0,22.73,0H1.17A1.17,1.17,0,0,0,0,1.17V44H30.83A1.17,1.17,0,0,0,32,42.83V20.29a1.18,1.18,0,0,0-1.17-1.18h-.5a1.17,1.17,0,0,0-1.17,1.18V41.16H2.84V2.84H21.2V9.63a1.18,1.18,0,0,0,1.18,1.18h6.78v5.47ZM24.05,8V4.86L27.15,8Z"/><path class="cls-2" d="M14.2,13.69H7.61A1.91,1.91,0,0,0,5.69,15.6v6.6H14.2Zm-2.87,5.67H8.51V16.53h2.82Z"/><path class="cls-2" d="M5.69,33.56H14.2V25H7.61A1.92,1.92,0,0,0,5.69,27Zm2.82-5.68h2.82v2.84H8.51Z"/></g></g></g></svg>