<?xml version="1.0" encoding="UTF-8"?>
<svg xmlns="http://www.w3.org/2000/svg" viewBox="0 0 30 46"><defs><style>.cls-1{fill:#558bff;}.cls-2{fill:#4f4f4f;}</style></defs><title>PhoneIcon</title><g id="Layer_2" data-name="Layer 2"><g id="Layer_1-2" data-name="Layer 1"><path class="cls-1" d="M1.66,39.73H28.52v2.44a2.27,2.27,0,0,1-2.22,2.3H3.88a2.26,2.26,0,0,1-2.22-2.3Z"/><path class="cls-1" d="M3.88,1.53H26.3a2.27,2.27,0,0,1,2.22,2.3v3.3H1.66V3.83A2.26,2.26,0,0,1,3.88,1.53Z"/><path class="cls-2" d="M27,41.67a1.24,1.24,0,0,1-1.22,1.26H4.18A1.24,1.24,0,0,1,3,41.67v-5H30V4.33A4.26,4.26,0,0,0,25.82,0H4.18A4.26,4.26,0,0,0,0,4.33V8.67H27V33.6H3V11.73H0V41.67A4.26,4.26,0,0,0,4.18,46H25.82A4.26,4.26,0,0,0,30,41.67V39.73H27ZM3,5.6V4.33A1.24,1.24,0,0,1,4.18,3.07H25.82A1.24,1.24,0,0,1,27,4.33V5.6Z"/><path class="cls-2" d="M15,37.93a1.87,1.87,0,1,0,1.8,1.87A1.83,1.83,0,0,0,15,37.93Z"/><path class="cls-1" d="M5.4,25.57H21.75v6.06H5.4Z"/><path class="cls-2" d="M5.4,25.38H24.58v3.06H5.4Z"/></g></g></svg>