<svg xmlns="http://www.w3.org/2000/svg" viewBox="0 0 40 40"><defs><style>.cls-1{fill:#558bff;}.cls-2{fill:#4f4f4f;}</style></defs><title>PopularIcon</title><g id="Layer_2" data-name="Layer 2"><g id="Layer_1-2" data-name="Layer 1"><path class="cls-1" d="M13.2,24.06,7.25,18a.43.43,0,0,1,.24-.73L15.65,16a.43.43,0,0,0,.32-.25l3.64-7.69a.43.43,0,0,1,.78,0L24,15.78a.43.43,0,0,0,.32.25l8.16,1.24a.43.43,0,0,1,.24.73L26.8,24.06a.4.4,0,0,1-.31.13h-13A.4.4,0,0,1,13.2,24.06Z"/><path class="cls-2" d="M39.88,15.1A2.4,2.4,0,0,0,38,13.4L27,11.74,22.14,1.4a2.34,2.34,0,0,0-4.28,0L13,11.74,2.05,13.4A2.4,2.4,0,0,0,.12,15.1a2.58,2.58,0,0,0,.6,2.56l7.91,8.05L6.76,37.08a2.55,2.55,0,0,0,1,2.44,2.29,2.29,0,0,0,2.52.19l1-.57.53-3.22L9.22,37.34l2.06-12.55L2.55,15.91l12.06-1.84L20,2.66l5.39,11.41,12.06,1.84-8.73,8.88,2.06,12.55L20,31.42,17.13,33l-.53,3.21L20,34.35l9.77,5.36a2.29,2.29,0,0,0,2.52-.19,2.55,2.55,0,0,0,1-2.44L31.37,25.71l7.91-8A2.58,2.58,0,0,0,39.88,15.1Z"/></g></g></svg>