<svg xmlns="http://www.w3.org/2000/svg" viewBox="0 0 42 31.78"><defs><style>.cls-1{fill:#558bff;}.cls-2{fill:#4f4f4f;}</style></defs><title>PrototypeIcon</title><g id="Layer_2" data-name="Layer 2"><g id="Layer_1-2" data-name="Layer 1"><path class="cls-1" d="M2.65,20.53H21.07v8.83H2.65Z"/><path class="cls-1" d="M1.4,1.4H40.6V8.22H1.4Z"/><path class="cls-2" d="M22.78,25.11V9.62H42V1.4A1.4,1.4,0,0,0,40.6,0H1.4A1.4,1.4,0,0,0,0,1.4V4H2.8V2.8H39.2v4H0V30.38a1.4,1.4,0,0,0,1.4,1.4H40.6a1.4,1.4,0,0,0,1.4-1.4v-18H39.2V29H22.78V25.11ZM20,9.62v8.49H2.8V9.62ZM2.8,29V20.91H20V29Z"/></g></g></svg>