<svg xmlns="http://www.w3.org/2000/svg" viewBox="0 0 35 48"><defs><style>.cls-1{fill:#69f;}.cls-2{fill:#4f4f4f;}</style></defs><title>ResearchIcon</title><g id="Layer_2" data-name="Layer 2"><g id="Layer_1-2" data-name="Layer 1"><path class="cls-1" d="M29.33,1.55H23V16l-4.45-3.62L14.1,16V1.55H9.78C8,1.55,6.61,1.17,6.61,3.17L6.5,28h26V5.17A3.42,3.42,0,0,0,29.33,1.55Z"/><path class="cls-2" d="M29.82,0H5.18A5.19,5.19,0,0,0,0,5.17V42.11A5.91,5.91,0,0,0,5.9,48H35V5.17A5.19,5.19,0,0,0,29.82,0ZM21,3.1V13L17.5,10.51,14,13V3.1ZM31.89,44.9H5.9a2.8,2.8,0,1,1,0-5.59h26Zm0-8.69H5.9a6.17,6.17,0,0,0-2.79.7V5.17A2.07,2.07,0,0,1,5.18,3.1h5.67v16l6.65-4.73,6.65,4.73V3.1h5.67a2.07,2.07,0,0,1,2.07,2.07Z"/></g></g></svg>