<svg xmlns="http://www.w3.org/2000/svg" viewBox="0 0 32 42"><defs><style>.cls-1{fill:#69f;}.cls-2{fill:#4f4f4f;}</style></defs><title>Research2Icon</title><g id="Layer_2" data-name="Layer 2"><g id="Layer_1-2" data-name="Layer 1"><path class="cls-1" d="M27.78,7.16h-4.7V18l-3.32-2.72L16.45,18V7.16H13.23c-1.3,0-2.36-.28-2.35,1.22l-.09,22.37H30.14V9.88A2.56,2.56,0,0,0,27.78,7.16Z"/><path class="cls-2" d="M28.15,6h-2.1V3.88A3.88,3.88,0,0,0,22.19,0H3.85A3.87,3.87,0,0,0,0,3.88v27.7A4.41,4.41,0,0,0,4.39,36H6v1.58A4.42,4.42,0,0,0,10.35,42H32V9.88A3.87,3.87,0,0,0,28.15,6ZM6,9.88v23.8H4.39a2.1,2.1,0,0,1-2.09-2.1c0-.58,0-3.9,0-3.9V3.88A1.55,1.55,0,0,1,3.85,2.32H22.19a1.56,1.56,0,0,1,1.54,1.56V6H9.81A3.88,3.88,0,0,0,6,9.88ZM21.61,8.32v7.45L19,13.88l-2.64,1.89V8.32Zm8.07,31.36H10.35a2.1,2.1,0,0,1,0-4.2H29.68Zm0-6.52H10.35a4.54,4.54,0,0,0-2.08.52V9.88A1.56,1.56,0,0,1,9.81,8.32H14v12l5-3.54,4.94,3.54v-12h4.22a1.54,1.54,0,0,1,1.53,1.56Z"/></g></g></svg>