<svg xmlns="http://www.w3.org/2000/svg" viewBox="0 0 44 34"><defs><style>.cls-1{fill:#558bff;}.cls-2{fill:#4f4f4f;}</style></defs><title>StoryIcon</title><g id="Layer_2" data-name="Layer 2"><g id="Layer_1-2" data-name="Layer 1"><path class="cls-1" d="M42.53,12.35v21H22V30.71a2.67,2.67,0,0,1,.76-1.87,2.56,2.56,0,0,1,1.83-.77h13V12.35Z"/><path class="cls-1" d="M1.47,33.54v-31h5v31Z"/><path class="cls-2" d="M10.77,14.12h7.79v3H10.77Z"/><path class="cls-2" d="M10.77,18.79h7.79v3H10.77Z"/><path class="cls-2" d="M10.77,9.45h7.79v3H10.77Z"/><path class="cls-2" d="M25.44,14.12h7.63v3H25.44Z"/><path class="cls-2" d="M25.44,18.79h7.63v3H25.44Z"/><path class="cls-2" d="M25.44,9.45h7.63v3H25.44Z"/><path class="cls-2" d="M44,28V1.5A1.49,1.49,0,0,0,42.53,0H5.87V31H2.93V0H1.47A1.49,1.49,0,0,0,0,1.5v31A1.49,1.49,0,0,0,1.47,34H42.53A1.49,1.49,0,0,0,44,32.5V31H38l.15-28h2.94V28ZM8.8,3H19.46a1.13,1.13,0,0,1,1.07,1.14V31H8.8ZM23.47,31V4.14A1.13,1.13,0,0,1,24.55,3H35.2l-.15,28Z"/></g></g></svg>