<svg xmlns="http://www.w3.org/2000/svg" viewBox="0 0 46 48.65"><defs><style>.cls-1{fill:#558bff;}.cls-2{fill:#4f4f4f;}</style></defs><title>SynthesizeIcon</title><g id="Layer_2" data-name="Layer 2"><g id="Layer_1-2" data-name="Layer 1"><g id="_09-Rise_Graphic" data-name=" 09-Rise Graphic"><path class="cls-1" d="M33.61,19.1H44.45V48.65H33.61Z"/><path class="cls-1" d="M1.55,26.9H12.39V47.1H1.55Z"/><path class="cls-2" d="M6.19,12.45h4.65v33.1H3.1V10.9A1.55,1.55,0,0,0,1.55,9.36h0A1.54,1.54,0,0,0,0,10.9V46.65a2,2,0,0,0,2,2H13.94V11.36a2,2,0,0,0-2-2H6.19Z"/><path class="cls-2" d="M38.26,0V3.1H42.9V45.55H35.16v-44A1.54,1.54,0,0,0,33.61,0h0a1.55,1.55,0,0,0-1.55,1.55V47.1a1.56,1.56,0,0,0,1.55,1.55H46V2a2,2,0,0,0-2-2Z"/><path class="cls-1" d="M17.54,33.26H28.38V47.1H17.54Z"/><path class="cls-2" d="M22.19,21.81h4.64V45.55H19.09V20.26a1.54,1.54,0,0,0-1.55-1.55h0A1.55,1.55,0,0,0,16,20.26V47.1a1.56,1.56,0,0,0,1.55,1.55H29.93V20.26a1.54,1.54,0,0,0-1.55-1.55H22.19Z"/></g></g></g></svg>